HIERARCHY
ROOT Hips
{
  OFFSET 5.72205e-005 65.662 3.42586
  CHANNELS 6 Xposition Yposition Zposition Zrotation Xrotation Yrotation
  JOINT Chest
  {
    OFFSET 0 8.7983 -4.7612
    CHANNELS 3 Zrotation Xrotation Yrotation
    JOINT Chest2
    {
      OFFSET 0 8.0291 0.4195
      CHANNELS 3 Zrotation Xrotation Yrotation
      JOINT Chest3
      {
        OFFSET 0 9.9351 -2.2114
        CHANNELS 3 Zrotation Xrotation Yrotation
        JOINT Neck
        {
          OFFSET 0 22.3885 -0.4656
          CHANNELS 3 Zrotation Xrotation Yrotation
          JOINT Head
          {
            OFFSET -0.0001 12.643 3.4389
            CHANNELS 3 Zrotation Xrotation Yrotation
            End Site
            {
              OFFSET 0.0001 17.6655 0.5274
            }
          }
        }
        JOINT LeftCollar
        {
          OFFSET 2.2603 21.606 7.4023
          CHANNELS 3 Zrotation Xrotation Yrotation
          JOINT LeftShoulder
          {
            OFFSET 13.5163 -1.1332 -5.0146
            CHANNELS 3 Zrotation Xrotation Yrotation
            JOINT LeftElbow
            {
              OFFSET -0.0995 -28.05 -0.2431
              CHANNELS 3 Zrotation Xrotation Yrotation
              JOINT LeftWrist
              {
                OFFSET 0.0679 -23.3996 -0.1402
                CHANNELS 3 Zrotation Xrotation Yrotation
                JOINT LeftFinger1
                {
                  OFFSET 0.7932 -9.069 2.5189
                  CHANNELS 3 Zrotation Xrotation Yrotation
                  JOINT LeftFinger11
                  {
                    OFFSET -0.8272 -3.3923 0.5977
                    CHANNELS 3 Zrotation Xrotation Yrotation
                    JOINT LeftFinger12
                    {
                      OFFSET -0.5649 -2.3158 0.4082
                      CHANNELS 3 Zrotation Xrotation Yrotation
                      End Site
                      {
                        OFFSET -0.4919 -1.6479 0.2673
                      }
                    }
                  }
                }
                JOINT LeftFinger2
                {
                  OFFSET 0.9159 -9.2044 0.2193
                  CHANNELS 3 Zrotation Xrotation Yrotation
                  JOINT LeftFinger21
                  {
                    OFFSET 0.0117 -4.1944 -0.0248
                    CHANNELS 3 Zrotation Xrotation Yrotation
                    JOINT LeftFinger22
                    {
                      OFFSET 0.0071 -2.3249 -0.0142
                      CHANNELS 3 Zrotation Xrotation Yrotation
                      End Site
                      {
                        OFFSET -0.1475 -2.0882 0.0028
                      }
                    }
                  }
                }
                JOINT LeftFinger3
                {
                  OFFSET 0.6113 -8.7231 -2.0637
                  CHANNELS 3 Zrotation Xrotation Yrotation
                  JOINT LeftFinger31
                  {
                    OFFSET -0.1927 -3.8059 -0.2383
                    CHANNELS 3 Zrotation Xrotation Yrotation
                    JOINT LeftFinger32
                    {
                      OFFSET -0.1091 -2.1688 -0.1362
                      CHANNELS 3 Zrotation Xrotation Yrotation
                      End Site
                      {
                        OFFSET -0.2358 -1.9176 -0.0906
                      }
                    }
                  }
                }
                JOINT LeftFinger4
                {
                  OFFSET -0.6151 -8.0947 -3.5641
                  CHANNELS 3 Zrotation Xrotation Yrotation
                  JOINT LeftFinger41
                  {
                    OFFSET -0.4882 -2.341 -0.6462
                    CHANNELS 3 Zrotation Xrotation Yrotation
                    JOINT LeftFinger42
                    {
                      OFFSET -0.3575 -1.7167 -0.4742
                      CHANNELS 3 Zrotation Xrotation Yrotation
                      End Site
                      {
                        OFFSET -0.4187 -1.5237 -0.3496
                      }
                    }
                  }
                }
                JOINT LeftFinger0
                {
                  OFFSET -1.42 -1.8761 1.4223
                  CHANNELS 3 Zrotation Xrotation Yrotation
                  JOINT LeftFinger01
                  {
                    OFFSET -1.1471 -3.4929 2.6334
                    CHANNELS 3 Zrotation Xrotation Yrotation
                    JOINT LeftFinger02
                    {
                      OFFSET -0.823 -2.3 1.6571
                      CHANNELS 3 Zrotation Xrotation Yrotation
                      End Site
                      {
                        OFFSET -0.5822 -1.6914 1.1582
                      }
                    }
                  }
                }
              }
            }
          }
        }
        JOINT RightCollar
        {
          OFFSET -2.2603 21.606 7.4023
          CHANNELS 3 Zrotation Xrotation Yrotation
          JOINT RightShoulder
          {
            OFFSET -13.5187 -1.1334 -5.0155
            CHANNELS 3 Zrotation Xrotation Yrotation
            JOINT RightElbow
            {
              OFFSET 0.0994 -28.0499 -0.2431
              CHANNELS 3 Zrotation Xrotation Yrotation
              JOINT RightWrist
              {
                OFFSET -0.0679 -23.3996 -0.1402
                CHANNELS 3 Zrotation Xrotation Yrotation
                JOINT RightFinger1
                {
                  OFFSET -0.7932 -9.0691 2.5189
                  CHANNELS 3 Zrotation Xrotation Yrotation
                  JOINT RightFinger11
                  {
                    OFFSET 0.8272 -3.3923 0.5977
                    CHANNELS 3 Zrotation Xrotation Yrotation
                    JOINT RightFinger12
                    {
                      OFFSET 0.565 -2.3158 0.4082
                      CHANNELS 3 Zrotation Xrotation Yrotation
                      End Site
                      {
                        OFFSET 0.4919 -1.6479 0.2673
                      }
                    }
                  }
                }
                JOINT RightFinger2
                {
                  OFFSET -0.916 -9.2044 0.2193
                  CHANNELS 3 Zrotation Xrotation Yrotation
                  JOINT RightFinger21
                  {
                    OFFSET -0.0117 -4.1944 -0.0248
                    CHANNELS 3 Zrotation Xrotation Yrotation
                    JOINT RightFinger22
                    {
                      OFFSET -0.0071 -2.3249 -0.0142
                      CHANNELS 3 Zrotation Xrotation Yrotation
                      End Site
                      {
                        OFFSET 0.1475 -2.0882 0.0028
                      }
                    }
                  }
                }
                JOINT RightFinger3
                {
                  OFFSET -0.6113 -8.7231 -2.0637
                  CHANNELS 3 Zrotation Xrotation Yrotation
                  JOINT RightFinger31
                  {
                    OFFSET 0.1927 -3.8059 -0.2383
                    CHANNELS 3 Zrotation Xrotation Yrotation
                    JOINT RightFinger32
                    {
                      OFFSET 0.1091 -2.1688 -0.1362
                      CHANNELS 3 Zrotation Xrotation Yrotation
                      End Site
                      {
                        OFFSET 0.2358 -1.9176 -0.0906
                      }
                    }
                  }
                }
                JOINT RightFinger4
                {
                  OFFSET 0.6151 -8.0947 -3.564
                  CHANNELS 3 Zrotation Xrotation Yrotation
                  JOINT RightFinger41
                  {
                    OFFSET 0.4882 -2.341 -0.6462
                    CHANNELS 3 Zrotation Xrotation Yrotation
                    JOINT RightFinger42
                    {
                      OFFSET 0.3574 -1.7166 -0.4742
                      CHANNELS 3 Zrotation Xrotation Yrotation
                      End Site
                      {
                        OFFSET 0.4187 -1.5237 -0.3496
                      }
                    }
                  }
                }
                JOINT RightFinger0
                {
                  OFFSET 1.4199 -1.8761 1.4221
                  CHANNELS 3 Zrotation Xrotation Yrotation
                  JOINT RightFinger01
                  {
                    OFFSET 1.1472 -3.4929 2.6336
                    CHANNELS 3 Zrotation Xrotation Yrotation
                    JOINT RightFinger02
                    {
                      OFFSET 0.8229 -2.3 1.6571
                      CHANNELS 3 Zrotation Xrotation Yrotation
                      End Site
                      {
                        OFFSET 0.5822 -1.6914 1.1582
                      }
                    }
                  }
                }
              }
            }
          }
        }
      }
    }
  }
  JOINT RightHip
  {
    OFFSET -9.412 3.9771 -0.7758
    CHANNELS 3 Zrotation Xrotation Yrotation
    JOINT RightKnee
    {
      OFFSET -0.7531 -40.938 0
      CHANNELS 3 Zrotation Xrotation Yrotation
      JOINT RightAnkle
      {
        OFFSET 0 -40.1986 0
        CHANNELS 3 Zrotation Xrotation Yrotation
        JOINT RightToe
        {
          OFFSET 0 -4.4182 9.239
          CHANNELS 3 Zrotation Xrotation Yrotation
          End Site
          {
            OFFSET 0 0 6.1981
          }
        }
      }
    }
  }
  JOINT LeftHip
  {
    OFFSET 9.4119 3.9773 -0.7758
    CHANNELS 3 Zrotation Xrotation Yrotation
    JOINT LeftKnee
    {
      OFFSET 0.7532 -40.9383 0
      CHANNELS 3 Zrotation Xrotation Yrotation
      JOINT LeftAnkle
      {
        OFFSET 0 -40.1986 0
        CHANNELS 3 Zrotation Xrotation Yrotation
        JOINT LeftToe
        {
          OFFSET 0 -4.4182 9.239
          CHANNELS 3 Zrotation Xrotation Yrotation
          End Site
          {
            OFFSET 0 0 6.1981
          }
        }
      }
    }
  }
}
MOTION
Frames:	4
Frame Time:	0.0333333
-3.98094 12.1581 8.02397 3.8002 -0.000326928 -90.0098 -0.308948 6.50929 -0.235592 -0.596578 13.0235 -0.439885 -0.596584 13.0235 -0.439882 2.8325 3.76581 -9.28148 2.64188 -36.2825 -6.35025 -19.6144 -2.84878 -25.0353 80.6209 -0.730978 7.84277 -42.2766 -13.6544 3.69476 38.8426 -10.5915 15.8768 3.02592e-006 -1.1504e-006 5.84822e-007 6.36111e-015 -3.18055e-015 1.59028e-015 9.54166e-015 0 -4.77083e-015 3.02592e-006 -1.1504e-006 5.84822e-007 -0.0128528 0.0023245 8.87409e-005 3.18055e-015 4.77083e-015 -1.59028e-015 3.02592e-006 -1.1504e-006 5.84822e-007 -0.0160612 0.00299774 0.000861147 3.18055e-015 -4.77083e-015 3.18055e-015 3.02592e-006 -1.1504e-006 5.84822e-007 -0.0126217 0.00312316 0.00283782 -9.54166e-015 2.70347e-014 -0 3.02592e-006 -1.1504e-006 5.84822e-007 6.36111e-015 -3.18055e-015 1.59028e-015 9.54166e-015 0 -4.77083e-015 15.4829 -4.30701 19.7377 -44.6632 9.34814 11.0244 -30.5119 -27.1375 -30.7285 -25.7693 12.0709 -6.27482 2.55236e-006 -1.56007e-005 5.59978e-006 -5.5316e-006 -5.24221e-007 2.53587e-006 -2.51458e-006 4.70994e-006 -1.13339e-005 2.55236e-006 -1.56007e-005 5.59978e-006 0.0129808 0.00232438 -9.11323e-005 -4.1712e-006 9.81754e-007 3.38264e-006 2.55236e-006 -1.56007e-005 5.59978e-006 0.0163273 0.0030397 -0.000877142 3.59645e-006 -3.58772e-006 9.51202e-006 2.55236e-006 -1.56007e-005 5.59978e-006 0.014583 0.00368084 -0.00326658 -3.18055e-015 0 1.59028e-015 2.55236e-006 -1.56007e-005 5.59978e-006 -5.5316e-006 -5.24221e-007 2.53587e-006 -2.51458e-006 4.70994e-006 -1.13339e-005 -132.695 -55.8183 -144.419 -170.046 58.5926 168.808 -3.36437 -8.08165 -2.37178 -7.95139e-016 7.95139e-016 -3.18055e-015 132.729 -55.829 144.439 170.112 58.5924 -168.876 3.37869 -8.08497 2.40154 5.79957e-007 2.50226e-006 -1.31057e-005 
-4.01192 12.0058 8.02401 3.60016 -0.000295788 -90.0094 -0.310606 6.32687 -0.23402 -0.600578 12.6589 -0.43726 -0.600581 12.6589 -0.437278 2.8168 3.74817 -9.23446 2.13899 -36.4405 -6.67287 -19.8077 -2.56828 -24.715 80.6209 -0.730936 7.84279 -42.2767 -13.6544 3.6947 38.5334 -10.3494 15.1641 -1.11897e-006 -4.21134e-006 -6.84516e-006 8.23508e-007 4.95306e-006 6.9997e-006 -3.18055e-015 2.06736e-014 -3.18055e-015 -1.11897e-006 -4.21134e-006 -6.84516e-006 -0.012853 0.0023306 9.13408e-005 -3.18055e-015 -7.95139e-015 3.18055e-015 -1.11897e-006 -4.21134e-006 -6.84516e-006 -0.0160798 0.00300725 0.000856905 1.90833e-014 -1.11319e-014 6.36111e-015 -1.11897e-006 -4.21134e-006 -6.84516e-006 -0.0125785 0.00312476 0.00283232 9.54166e-015 -1.59028e-015 -3.18055e-015 -1.11897e-006 -4.21134e-006 -6.84516e-006 8.23508e-007 4.95306e-006 6.9997e-006 -3.18055e-015 2.06736e-014 -3.18055e-015 15.2705 -4.09776 19.2205 -44.2951 9.31072 11.0101 -30.5117 -27.1373 -30.7285 -25.6614 12.1118 -5.45746 -4.41391e-032 -3.18055e-015 -7.95139e-016 5.75997e-006 -4.83826e-007 5.87861e-006 2.73896e-006 1.84757e-006 -2.68712e-007 -4.41391e-032 -3.18055e-015 -7.95139e-016 0.0129563 0.00231777 -7.87263e-005 -6.36111e-015 1.59028e-015 1.59028e-015 -4.41391e-032 -3.18055e-015 -7.95139e-016 0.0163369 0.00304303 -0.000868688 -4.41391e-032 -1.59028e-015 -1.59028e-015 -4.41391e-032 -3.18055e-015 -7.95139e-016 0.014584 0.0036817 -0.00325175 1.34229e-005 -2.63381e-006 5.45145e-006 -4.41391e-032 -3.18055e-015 -7.95139e-016 5.75997e-006 -4.83826e-007 5.87861e-006 2.73896e-006 1.84757e-006 -2.68712e-007 -132.691 -55.8201 -144.416 -170.046 58.5938 168.808 -3.36419 -8.08317 -2.37154 2.58812e-006 1.5139e-006 1.55584e-006 132.725 -55.8309 144.435 170.112 58.5937 -168.876 3.37854 -8.08647 2.40132 1.72476e-006 -3.08807e-006 -1.45665e-006 
-4.04284 11.8537 8.02404 3.39789 -0.000265924 -90.009 -0.312239 6.14693 -0.232398 -0.604496 12.2944 -0.434663 -0.604499 12.2943 -0.434684 2.80111 3.73057 -9.18745 1.6336 -36.5963 -6.99812 -20.0025 -2.28886 -24.3938 80.6209 -0.730939 7.84278 -42.2766 -13.6544 3.69468 38.2276 -10.1035 14.4534 -6.36111e-015 -1.59028e-015 -1.59028e-015 -6.36111e-015 1.59028e-015 1.59028e-015 -3.18055e-015 3.18055e-015 3.18055e-015 -6.36111e-015 -1.59028e-015 -1.59028e-015 -0.0128332 0.00232493 8.39761e-005 -3.18055e-015 -7.95139e-015 3.18055e-015 -6.36111e-015 -1.59028e-015 -1.59028e-015 -0.0160533 0.00299021 0.000849059 1.27222e-014 -3.18055e-015 1.59028e-015 -6.36111e-015 -1.59028e-015 -1.59028e-015 -0.0125836 0.00311429 0.00282467 3.18055e-015 -3.18055e-015 -1.59028e-015 -6.36111e-015 -1.59028e-015 -1.59028e-015 -6.36111e-015 1.59028e-015 1.59028e-015 -3.18055e-015 3.18055e-015 3.18055e-015 15.06 -3.88659 18.7042 -43.9268 9.27387 10.996 -30.5121 -27.1375 -30.7286 -25.5541 12.1541 -4.64034 3.18055e-015 -3.18055e-015 -0 2.84631e-006 -3.48589e-006 6.29969e-006 -6.36111e-015 -3.18055e-015 1.59028e-015 3.18055e-015 -3.18055e-015 -0 0.012934 0.00232103 -9.40092e-005 1.48014e-006 -4.14195e-006 6.42835e-006 3.18055e-015 -3.18055e-015 -0 0.0163166 0.0030397 -0.000878912 0 0 -0 3.18055e-015 -3.18055e-015 -0 0.0146086 0.00369559 -0.00327366 3.18055e-015 -1.59028e-015 7.95139e-016 3.18055e-015 -3.18055e-015 -0 2.84631e-006 -3.48589e-006 6.29969e-006 -6.36111e-015 -3.18055e-015 1.59028e-015 -132.685 -55.8235 -144.409 -170.045 58.5951 168.808 -3.36406 -8.08469 -2.37127 -1.59028e-015 2.18663e-014 -0 132.718 -55.8343 144.428 170.111 58.5951 -168.876 3.37838 -8.08802 2.40106 -7.95139e-016 1.98785e-015 6.36111e-015 
-4.0737 11.7017 8.02408 3.19916 -0.000238311 -90.0086 -0.313836 5.96345 -0.230809 -0.608346 11.9301 -0.432064 -0.60835 11.9301 -0.432069 2.78545 3.71284 -9.1405 1.12572 -36.7498 -7.32594 -20.1987 -2.0106 -24.0719 80.6209 -0.730947 7.84277 -42.2766 -13.6544 3.69472 37.9252 -9.85409 13.7447 3.18055e-015 -3.18055e-015 9.54166e-015 1.19319e-005 -8.07518e-006 -3.1091e-006 -3.98067e-006 1.57806e-006 -1.99575e-006 3.18055e-015 -3.18055e-015 9.54166e-015 -0.0128344 0.00232301 7.25389e-005 1.27222e-014 0 -1.59028e-015 3.18055e-015 -3.18055e-015 9.54166e-015 -0.0160027 0.00299035 0.000855347 -4.41391e-032 1.59028e-015 1.59028e-015 3.18055e-015 -3.18055e-015 9.54166e-015 -0.0126186 0.00312294 0.00282781 6.36111e-015 -4.77083e-015 -3.18055e-015 3.18055e-015 -3.18055e-015 9.54166e-015 1.19319e-005 -8.07518e-006 -3.1091e-006 -3.98067e-006 1.57806e-006 -1.99575e-006 14.8515 -3.67366 18.1889 -43.5588 9.23648 10.9821 -30.5119 -27.1374 -30.7285 -25.4475 12.198 -3.82333 -1.12331e-006 1.73651e-006 2.80299e-006 -6.36111e-015 0 7.95139e-016 1.02008e-005 -5.6158e-006 -4.82383e-007 -1.12331e-006 1.73651e-006 2.80299e-006 0.0129456 0.00231763 -9.5448e-005 -3.96069e-006 -8.30316e-006 -3.50044e-006 -1.12331e-006 1.73651e-006 2.80299e-006 0.0163631 0.00304422 -0.000870721 7.05297e-007 -8.4128e-006 -5.32856e-006 -1.12331e-006 1.73651e-006 2.80299e-006 0.0145548 0.00367004 -0.00325559 -4.59877e-007 -1.78981e-006 -1.52965e-006 -1.12331e-006 1.73651e-006 2.80299e-006 -6.36111e-015 0 7.95139e-016 1.02008e-005 -5.6158e-006 -4.82383e-007 -132.682 -55.8245 -144.407 -170.045 58.5964 168.807 -3.3639 -8.08626 -2.37105 7.95139e-016 -9.77604e-007 -0 132.716 -55.8352 144.426 170.11 58.5963 -168.876 3.37823 -8.08959 2.40082 -1.59028e-015 5.23904e-010 6.36111e-015 
